<svg id="Layer_1" data-name="Layer 1" xmlns="http://www.w3.org/2000/svg" viewBox="0 0 635.99 176.15"><path d="M674.18,270.44a41,41,0,0,0-17.43-14.93A57.49,57.49,0,0,0,633,250.78q-22.18,0-36.08,14a44.87,44.87,0,0,0-11,18.69V217.92H559.61V350.36a9.26,9.26,0,0,1-3.67-2.94c-.86-1.23-1.39-3.57-1.57-7q-.2-6.86-.19-11.66V282.44q0-18.24-12.92-24.81t-29.56-6.57q-25.57,0-36.08,13.33a32.11,32.11,0,0,0-2.79,4.31,28.49,28.49,0,0,0-8.2-9.12q-12.11-8.52-31.09-8.52-22.34,0-35,14.44a45.71,45.71,0,0,0-7.46,11.84q-3-13.12-12.59-19.2-11.91-7.54-30.84-7.54t-29.86,9.11v-8.46c-1.17-.06-1.93-.11-2.27-.14s-.75-.05-1.25-.05a38,38,0,0,0-6.65.58,35,35,0,0,0-14.13,4.9,39.41,39.41,0,0,0-9.11,7.07V253.47H259.17v96.85a9.22,9.22,0,0,1-3.59-2.9c-.87-1.23-1.39-3.57-1.58-7-.12-4.57-.19-8.46-.19-11.66V282.44q0-18.24-12.92-24.81t-29.56-6.57q-25.56,0-36.07,13.33a33.36,33.36,0,0,0-5.07,9.45,39,39,0,0,0-6.6-9.55,40,40,0,0,0-30.14-13.05,37.64,37.64,0,0,0-8.69,1s-.1,0-.12,0A33.57,33.57,0,0,0,112,257.46a34.26,34.26,0,0,0-8.73,8.17V253.46H78V394.08h26.11v-49.3a44.14,44.14,0,0,0,5.58,4.8,43,43,0,0,0,7,4.13,34.91,34.91,0,0,0,16.11,3.53q19,0,31.07-14a42.14,42.14,0,0,0,2.74-3.57,24.62,24.62,0,0,0,6.95,10q9,7.83,22.76,7.82a38.28,38.28,0,0,0,19.37-4.9,54.46,54.46,0,0,0,12.66-10.09q.27,3.42.74,6.11a29,29,0,0,0,1.67,5.74h55V306.14q0-12.13,3.06-18,4.79-9.07,17.58-10.2a31.73,31.73,0,0,0-.68,6.68q0,11.85,7,18.15T337,313.45q23.88,5.66,27.6,8a7.49,7.49,0,0,1,3.7,6.76q0,4.63-4.6,6.94t-12.42,2.32q-13.29,0-18.23-5.28-2.79-3-3.62-10H302.64q0,15.56,11.36,25.6t35.2,10q23.37,0,34.55-9.49a31,31,0,0,0,8.89-12.06,46.86,46.86,0,0,0,4.67,7.11q11.49,14.44,35.86,14.44,22.8,0,35.14-15.16a24.55,24.55,0,0,0,5.62,7.06q9,7.83,22.77,7.82a38.24,38.24,0,0,0,19.36-4.9,54.46,54.46,0,0,0,12.66-10.09q.28,3.42.75,6.11a29,29,0,0,0,1.66,5.74H586V326.5a38.65,38.65,0,0,0,12.45,18.88A55,55,0,0,0,634,357.79q24.39,0,37.95-14.72,8.72-9.26,9.79-18.23H654.78a22.2,22.2,0,0,1-5.43,6.94q-5.62,4.64-14.65,4.63a26.8,26.8,0,0,1-14.54-3.8q-9.95-6.11-10.55-21.29h73.48a128.89,128.89,0,0,0-.87-20A49.39,49.39,0,0,0,674.18,270.44ZM127.45,335.12c-.23,0-.45,0-.68,0-13-.45-23.39-13.63-23.57-29.94,0-.14,0-.29,0-.43,0-.35,0-.68,0-1l0-.59c0-.58,0-1.16.08-1.72,1.3-14.94,11.23-26.6,23.41-27,.23,0,.47,0,.71,0,13.4,0,24.26,13.62,24.26,30.42S140.85,335.12,127.45,335.12Zm100.07-20q-.27,13.23-7.56,18.23a27.53,27.53,0,0,1-15.93,5,14.44,14.44,0,0,1-9.26-3q-3.81-3-3.81-9.76,0-7.59,6.24-11.2,3.68-2.13,12.12-3.61l6-1.11a43.43,43.43,0,0,0,7.08-1.81,28.93,28.93,0,0,0,5.11-2.54Zm-5.59-24.44q-3.17,1.4-10.54,2.32l-9,1.11Q187,296,179,300.58a33.21,33.21,0,0,0-3.1,2,84.89,84.89,0,0,0-.94-13h18.28v-3.52a19,19,0,0,1,3.75-9.25q3.94-4.63,13.42-4.63,8.45,0,12.81,2.36t4.36,8.56Q227.62,288.28,221.93,290.68Zm141.58,3q-23.64-5.17-27.54-7.31a6.89,6.89,0,0,1-3.9-6.57q0-3.61,3.67-6.3T348,270.78q10.5,0,14.86,5.37a15.71,15.71,0,0,1,2.88,8.05h22.82a76.69,76.69,0,0,0-2.74,19.49Q378,297.06,363.51,293.64Zm164.38,21.48q-.28,13.23-7.57,18.23a27.49,27.49,0,0,1-15.93,5,14.46,14.46,0,0,1-9.26-3q-3.79-3-3.8-9.76,0-7.59,6.23-11.2,3.68-2.13,12.13-3.61l6-1.11a43.59,43.59,0,0,0,7.09-1.81,29.27,29.27,0,0,0,5.11-2.54Zm-5.59-24.44q-3.18,1.4-10.54,2.32l-9,1.11q-15.39,1.93-23.32,6.47a27.53,27.53,0,0,0-11,11.33H451.73v5.8h0q-.84,8-4.74,13t-13.17,5q-13.08,0-17.82-12.59-2.6-6.74-2.6-17.82,0-11.64,2.6-18.65,4.92-13.25,18.28-13.24,9.38,0,13.83,6.11a23.32,23.32,0,0,1,3.8,10.18h41.73v-3.52a19.1,19.1,0,0,1,3.76-9.25q3.93-4.63,13.41-4.63,8.45,0,12.81,2.36t4.36,8.56Q528,288.28,522.3,290.68Zm88,3.24q1.44-9.85,7-15.62T633,272.54A23.11,23.11,0,0,1,648.68,278q6.3,5.43,7,15.94Z" transform="translate(-78.01 -217.92)"/><circle cx="624.11" cy="127.99" r="11.88"/></svg>