<svg id="Layer_1" data-name="Layer 1" xmlns="http://www.w3.org/2000/svg" viewBox="0 0 314.03 368.12"><defs><style>.cls-1{fill:#231f20;}</style></defs><path class="cls-1" d="M459.56,155.58Q427.73,122,381.87,121.94a97.94,97.94,0,0,0-22.39,2.46c-.11,0-.27,0-.32.06A87,87,0,0,0,326.64,138a88.81,88.81,0,0,0-22.5,21V127.67H239V490.06h67.29V363a111,111,0,0,0,14.4,12.38,109.68,109.68,0,0,0,18,10.64q17.69,9.06,41.51,9.1,49,0,80.1-36.05t31.07-104.69Q491.38,189.21,459.56,155.58ZM366.4,338.12c-.59,0-1.16-.09-1.74-.11-33.42-1.16-60.27-35.12-60.75-77.15,0-.38,0-.74,0-1.12,0-.89.08-1.75.1-2.63l.06-1.53c.07-1.48.1-3,.23-4.42,3.35-38.5,28.93-68.55,60.31-69.69.61,0,1.21-.12,1.83-.12,34.54,0,62.54,35.1,62.54,78.39S400.94,338.12,366.4,338.12Z" transform="translate(-238.99 -121.94)"/><circle class="cls-1" cx="283.41" cy="243.99" r="30.62"/></svg>